<svg width="101" height="101" viewBox="0 0 101 101" fill="none" xmlns="http://www.w3.org/2000/svg">
<g opacity="0.3" clip-path="url(#clip0)">
<g clip-path="url(#clip1)">
<circle cx="1.70898" cy="1.80328" r="1.5" fill="#071D61"/>
<circle cx="10.709" cy="1.80328" r="1.5" fill="#071D61"/>
<circle cx="19.709" cy="1.80328" r="1.5" fill="#071D61"/>
<circle cx="28.709" cy="1.80328" r="1.5" fill="#071D61"/>
<circle cx="37.709" cy="1.80328" r="1.5" fill="#071D61"/>
<circle cx="46.709" cy="1.80328" r="1.5" fill="#071D61"/>
<circle cx="55.709" cy="1.80328" r="1.5" fill="#071D61"/>
<circle cx="64.709" cy="1.80328" r="1.5" fill="#071D61"/>
<circle cx="73.709" cy="1.80328" r="1.5" fill="#071D61"/>
<circle cx="82.709" cy="1.80328" r="1.5" fill="#071D61"/>
<circle cx="91.709" cy="1.80328" r="1.5" fill="#071D61"/>
</g>
<g clip-path="url(#clip2)">
<circle cx="1.70898" cy="10.8033" r="1.5" fill="#071D61"/>
<circle cx="10.709" cy="10.8033" r="1.5" fill="#071D61"/>
<circle cx="19.709" cy="10.8033" r="1.5" fill="#071D61"/>
<circle cx="28.709" cy="10.8033" r="1.5" fill="#071D61"/>
<circle cx="37.709" cy="10.8033" r="1.5" fill="#071D61"/>
<circle cx="46.709" cy="10.8033" r="1.5" fill="#071D61"/>
<circle cx="55.709" cy="10.8033" r="1.5" fill="#071D61"/>
<circle cx="64.709" cy="10.8033" r="1.5" fill="#071D61"/>
<circle cx="73.709" cy="10.8033" r="1.5" fill="#071D61"/>
<circle cx="82.709" cy="10.8033" r="1.5" fill="#071D61"/>
<circle cx="91.709" cy="10.8033" r="1.5" fill="#071D61"/>
</g>
<g clip-path="url(#clip3)">
<circle cx="1.70898" cy="19.8033" r="1.5" fill="#071D61"/>
<circle cx="10.709" cy="19.8033" r="1.5" fill="#071D61"/>
<circle cx="19.709" cy="19.8033" r="1.5" fill="#071D61"/>
<circle cx="28.709" cy="19.8033" r="1.5" fill="#071D61"/>
<circle cx="37.709" cy="19.8033" r="1.5" fill="#071D61"/>
<circle cx="46.709" cy="19.8033" r="1.5" fill="#071D61"/>
<circle cx="55.709" cy="19.8033" r="1.5" fill="#071D61"/>
<circle cx="64.709" cy="19.8033" r="1.5" fill="#071D61"/>
<circle cx="73.709" cy="19.8033" r="1.5" fill="#071D61"/>
<circle cx="82.709" cy="19.8033" r="1.5" fill="#071D61"/>
<circle cx="91.709" cy="19.8033" r="1.5" fill="#071D61"/>
</g>
<g clip-path="url(#clip4)">
<circle cx="1.70898" cy="28.8033" r="1.5" fill="#071D61"/>
<circle cx="10.709" cy="28.8033" r="1.5" fill="#071D61"/>
<circle cx="19.709" cy="28.8033" r="1.5" fill="#071D61"/>
<circle cx="28.709" cy="28.8033" r="1.5" fill="#071D61"/>
<circle cx="37.709" cy="28.8033" r="1.5" fill="#071D61"/>
<circle cx="46.709" cy="28.8033" r="1.5" fill="#071D61"/>
<circle cx="55.709" cy="28.8033" r="1.5" fill="#071D61"/>
<circle cx="64.709" cy="28.8033" r="1.5" fill="#071D61"/>
<circle cx="73.709" cy="28.8033" r="1.5" fill="#071D61"/>
<circle cx="82.709" cy="28.8033" r="1.5" fill="#071D61"/>
<circle cx="91.709" cy="28.8033" r="1.5" fill="#071D61"/>
</g>
<g clip-path="url(#clip5)">
<circle cx="1.70898" cy="37.8033" r="1.5" fill="#071D61"/>
<circle cx="10.709" cy="37.8033" r="1.5" fill="#071D61"/>
<circle cx="19.709" cy="37.8033" r="1.5" fill="#071D61"/>
<circle cx="28.709" cy="37.8033" r="1.5" fill="#071D61"/>
<circle cx="37.709" cy="37.8033" r="1.5" fill="#071D61"/>
<circle cx="46.709" cy="37.8033" r="1.5" fill="#071D61"/>
<circle cx="55.709" cy="37.8033" r="1.5" fill="#071D61"/>
<circle cx="64.709" cy="37.8033" r="1.5" fill="#071D61"/>
<circle cx="73.709" cy="37.8033" r="1.5" fill="#071D61"/>
<circle cx="82.709" cy="37.8033" r="1.5" fill="#071D61"/>
<circle cx="91.709" cy="37.8033" r="1.5" fill="#071D61"/>
</g>
<g clip-path="url(#clip6)">
<circle cx="1.70898" cy="46.8033" r="1.5" fill="#071D61"/>
<circle cx="10.709" cy="46.8033" r="1.5" fill="#071D61"/>
<circle cx="19.709" cy="46.8033" r="1.5" fill="#071D61"/>
<circle cx="28.709" cy="46.8033" r="1.5" fill="#071D61"/>
<circle cx="37.709" cy="46.8033" r="1.5" fill="#071D61"/>
<circle cx="46.709" cy="46.8033" r="1.5" fill="#071D61"/>
<circle cx="55.709" cy="46.8033" r="1.5" fill="#071D61"/>
<circle cx="64.709" cy="46.8033" r="1.5" fill="#071D61"/>
<circle cx="73.709" cy="46.8033" r="1.5" fill="#071D61"/>
<circle cx="82.709" cy="46.8033" r="1.5" fill="#071D61"/>
<circle cx="91.709" cy="46.8033" r="1.5" fill="#071D61"/>
</g>
<g clip-path="url(#clip7)">
<circle cx="1.70898" cy="55.8033" r="1.5" fill="#071D61"/>
<circle cx="10.709" cy="55.8033" r="1.5" fill="#071D61"/>
<circle cx="19.709" cy="55.8033" r="1.5" fill="#071D61"/>
<circle cx="28.709" cy="55.8033" r="1.5" fill="#071D61"/>
<circle cx="37.709" cy="55.8033" r="1.5" fill="#071D61"/>
<circle cx="46.709" cy="55.8033" r="1.5" fill="#071D61"/>
<circle cx="55.709" cy="55.8033" r="1.5" fill="#071D61"/>
<circle cx="64.709" cy="55.8033" r="1.5" fill="#071D61"/>
<circle cx="73.709" cy="55.8033" r="1.5" fill="#071D61"/>
<circle cx="82.709" cy="55.8033" r="1.5" fill="#071D61"/>
<circle cx="91.709" cy="55.8033" r="1.5" fill="#071D61"/>
</g>
<g clip-path="url(#clip8)">
<circle cx="1.70898" cy="64.8033" r="1.5" fill="#071D61"/>
<circle cx="10.709" cy="64.8033" r="1.5" fill="#071D61"/>
<circle cx="19.709" cy="64.8033" r="1.5" fill="#071D61"/>
<circle cx="28.709" cy="64.8033" r="1.5" fill="#071D61"/>
<circle cx="37.709" cy="64.8033" r="1.5" fill="#071D61"/>
<circle cx="46.709" cy="64.8033" r="1.5" fill="#071D61"/>
<circle cx="55.709" cy="64.8033" r="1.5" fill="#071D61"/>
<circle cx="64.709" cy="64.8033" r="1.5" fill="#071D61"/>
<circle cx="73.709" cy="64.8033" r="1.5" fill="#071D61"/>
<circle cx="82.709" cy="64.8033" r="1.5" fill="#071D61"/>
<circle cx="91.709" cy="64.8033" r="1.5" fill="#071D61"/>
</g>
<g clip-path="url(#clip9)">
<circle cx="1.70898" cy="73.8033" r="1.5" fill="#071D61"/>
<circle cx="10.709" cy="73.8033" r="1.5" fill="#071D61"/>
<circle cx="19.709" cy="73.8033" r="1.5" fill="#071D61"/>
<circle cx="28.709" cy="73.8033" r="1.5" fill="#071D61"/>
<circle cx="37.709" cy="73.8033" r="1.5" fill="#071D61"/>
<circle cx="46.709" cy="73.8033" r="1.5" fill="#071D61"/>
<circle cx="55.709" cy="73.8033" r="1.5" fill="#071D61"/>
<circle cx="64.709" cy="73.8033" r="1.5" fill="#071D61"/>
<circle cx="73.709" cy="73.8033" r="1.5" fill="#071D61"/>
<circle cx="82.709" cy="73.8033" r="1.5" fill="#071D61"/>
<circle cx="91.709" cy="73.8033" r="1.5" fill="#071D61"/>
</g>
<g clip-path="url(#clip10)">
<circle cx="1.70898" cy="82.8033" r="1.5" fill="#071D61"/>
<circle cx="10.709" cy="82.8033" r="1.5" fill="#071D61"/>
<circle cx="19.709" cy="82.8033" r="1.5" fill="#071D61"/>
<circle cx="28.709" cy="82.8033" r="1.5" fill="#071D61"/>
<circle cx="37.709" cy="82.8033" r="1.5" fill="#071D61"/>
<circle cx="46.709" cy="82.8033" r="1.5" fill="#071D61"/>
<circle cx="55.709" cy="82.8033" r="1.5" fill="#071D61"/>
<circle cx="64.709" cy="82.8033" r="1.5" fill="#071D61"/>
<circle cx="73.709" cy="82.8033" r="1.5" fill="#071D61"/>
<circle cx="82.709" cy="82.8033" r="1.5" fill="#071D61"/>
<circle cx="91.709" cy="82.8033" r="1.5" fill="#071D61"/>
</g>
<g clip-path="url(#clip11)">
<circle cx="1.70898" cy="91.8033" r="1.5" fill="#071D61"/>
<circle cx="10.709" cy="91.8033" r="1.5" fill="#071D61"/>
<circle cx="19.709" cy="91.8033" r="1.5" fill="#071D61"/>
<circle cx="28.709" cy="91.8033" r="1.5" fill="#071D61"/>
<circle cx="37.709" cy="91.8033" r="1.5" fill="#071D61"/>
<circle cx="46.709" cy="91.8033" r="1.5" fill="#071D61"/>
<circle cx="55.709" cy="91.8033" r="1.5" fill="#071D61"/>
<circle cx="64.709" cy="91.8033" r="1.5" fill="#071D61"/>
<circle cx="73.709" cy="91.8033" r="1.5" fill="#071D61"/>
<circle cx="82.709" cy="91.8033" r="1.5" fill="#071D61"/>
<circle cx="91.709" cy="91.8033" r="1.5" fill="#071D61"/>
</g>
</g>
<defs>
<clipPath id="clip0">
<rect width="100" height="100" fill="white" transform="translate(0.208984 0.303284)"/>
</clipPath>
<clipPath id="clip1">
<rect width="100" height="9" fill="white" transform="translate(0.208984 0.303284)"/>
</clipPath>
<clipPath id="clip2">
<rect width="100" height="9" fill="white" transform="translate(0.208984 9.30328)"/>
</clipPath>
<clipPath id="clip3">
<rect width="100" height="9" fill="white" transform="translate(0.208984 18.3033)"/>
</clipPath>
<clipPath id="clip4">
<rect width="100" height="9" fill="white" transform="translate(0.208984 27.3033)"/>
</clipPath>
<clipPath id="clip5">
<rect width="100" height="9" fill="white" transform="translate(0.208984 36.3033)"/>
</clipPath>
<clipPath id="clip6">
<rect width="100" height="9" fill="white" transform="translate(0.208984 45.3033)"/>
</clipPath>
<clipPath id="clip7">
<rect width="100" height="9" fill="white" transform="translate(0.208984 54.3033)"/>
</clipPath>
<clipPath id="clip8">
<rect width="100" height="9" fill="white" transform="translate(0.208984 63.3033)"/>
</clipPath>
<clipPath id="clip9">
<rect width="100" height="9" fill="white" transform="translate(0.208984 72.3033)"/>
</clipPath>
<clipPath id="clip10">
<rect width="100" height="9" fill="white" transform="translate(0.208984 81.3033)"/>
</clipPath>
<clipPath id="clip11">
<rect width="100" height="9" fill="white" transform="translate(0.208984 90.3033)"/>
</clipPath>
</defs>
</svg>
